<?xml version="1.0" encoding="UTF-8"?>
<!DOCTYPE svg PUBLIC "-//W3C//DTD SVG 1.1//EN" "http://www.w3.org/Graphics/SVG/1.1/DTD/svg11.dtd">
<!-- Creator: CorelDRAW 2017 -->
<svg xmlns="http://www.w3.org/2000/svg" xml:space="preserve" width="352.778mm" height="282.222mm" version="1.1" shape-rendering="geometricPrecision" text-rendering="geometricPrecision" image-rendering="optimizeQuality" fill-rule="evenodd" clip-rule="evenodd"
viewBox="0 0 47017 37613"
 xmlns:xlink="http://www.w3.org/1999/xlink">
 <g id="Layer_x0020_1">
  <metadata id="CorelCorpID_0Corel-Layer"/>
  <polygon fill="white" fill-rule="nonzero" points="0,37613 47017,37613 47017,0 0,0 "/>
  <path fill="#F7F7F7" fill-rule="nonzero" d="M21745 31531c-1083,3 -2165,31 -3246,158 -407,48 -806,154 -1215,196 -816,85 -1617,244 -2435,317 -659,59 -1321,94 -1978,169 -616,70 -1298,54 -1910,-62 -453,-86 -907,-134 -1353,-272 -498,-154 -1039,-264 -1558,-260 -740,6 -1460,6 -2168,278 -248,95 -553,253 -741,453 -432,459 -490,1604 -59,2080 727,801 2277,1115 3295,1130 1116,16 2200,-71 3318,-123 1038,-48 2074,-116 3114,-114 2124,5 4249,0 6370,-150 1992,-141 3990,-93 5986,-93 2048,0 4081,17 6114,305 886,126 1788,170 2678,258 797,79 1563,-2 2357,-74 667,-61 1329,-243 1935,-549 479,-243 1334,-997 1481,-1576 412,-1624 -5809,-1585 -6765,-1582 -1069,4 -2146,41 -3214,-2 -449,-18 -892,-111 -1330,-213 -437,-102 -877,-76 -1319,-118 -1847,-178 -3697,-152 -5550,-152 -603,0 -1206,-6 -1809,-4z"/>
  <polygon fill="#B97262" fill-rule="nonzero" points="13047,16392 12964,15832 13202,15786 13344,16157 13446,16083 13459,16571 13218,16652 "/>
  <polygon fill="#B5D6CA" fill-rule="nonzero" points="16643,19301 14502,18743 13510,16404 13040,16589 13599,19611 16066,20881 "/>
  <polygon fill="#5BBCB9" fill-rule="nonzero" points="35007,19057 32978,20538 31209,19773 30949,20250 32289,21163 33040,21444 35007,20497 "/>
  <path fill="#1A3151" fill-rule="nonzero" d="M36405 9802l6214 516c575,48 1003,553 955,1128l-333 4006c-48,573 -549,1000 -1122,955l-999 -77 -1271 1503c-37,44 -109,15 -105,-43l107 -1566 -3954 -338c-574,-49 -1000,-554 -953,-1128l333 -4002c48,-575 553,-1003 1128,-955z"/>
  <polygon fill="#FFFFEE" fill-rule="nonzero" points="36441,11227 41404,11650 41422,11443 36459,11020 "/>
  <polygon fill="#FFFFEE" fill-rule="nonzero" points="36306,12803 42226,13308 42244,13102 36324,12597 "/>
  <polygon fill="#FFFFEE" fill-rule="nonzero" points="36172,14380 42092,14885 42109,14679 36190,14174 "/>
  <polygon fill="#9EA6AD" fill-rule="nonzero" points="31795,26054 31914,28816 31565,33513 31043,33550 30408,29284 29530,25675 "/>
  <polygon fill="#1A3151" fill-rule="nonzero" points="31061,33770 31646,34012 31909,33710 31606,33447 31041,33487 "/>
  <polygon fill="#9EA6AD" fill-rule="nonzero" points="28097,25077 27983,27165 28323,33372 28846,33398 29630,29327 30321,24862 "/>
  <polygon fill="#1A3151" fill-rule="nonzero" points="28832,33619 28252,33873 27984,33576 28280,33308 28846,33336 "/>
  <path fill="#EBB044" fill-rule="nonzero" d="M31139 18926l-1632 -175c0,0 -908,97 -1524,2253 -343,1200 -447,3090 -472,4531 39,206 262,1106 1209,953 1626,-262 2492,-525 3200,-393 603,131 552,-699 486,-1333l-240 -1961 -1026 -3875z"/>
  <path fill="#B97262" fill-rule="nonzero" d="M30823 16895c-411,-91 -835,-172 -1247,-90 -90,18 -187,49 -236,127 -19,30 -29,65 -38,99 -104,386 -236,959 19,1315 48,68 114,122 184,166 94,58 197,98 304,119 -22,96 -53,190 -92,281 94,142 534,159 615,23 5,-118 9,-236 14,-353 53,-22 105,-48 154,-80 188,-124 311,-311 383,-521 78,-229 188,-446 260,-679 26,-85 47,-182 2,-259 -48,-82 -150,-109 -242,-130 -26,-6 -52,-12 -78,-17z"/>
  <path fill="#1A3151" fill-rule="nonzero" d="M29454 17116c203,-131 508,-187 700,-173 578,42 790,466 821,998 159,-202 458,-457 476,-717 15,-213 -15,-504 -134,-688 -112,-172 -397,-267 -567,-367 -160,-94 -320,-188 -481,-282 -33,-20 -68,-39 -106,-46 -45,-8 -91,4 -135,15 -379,98 -757,196 -1136,294 -73,19 -156,46 -182,116 -16,43 -7,90 3,135 43,197 125,397 146,596 23,116 92,709 297,640 60,-98 69,-219 116,-325 35,-78 100,-143 183,-196z"/>
  <polygon fill="#EBB044" fill-rule="nonzero" points="29506,18752 28903,18935 26700,21243 26569,22004 27622,23743 27907,23105 27461,21820 28169,21322 29113,19197 "/>
  <polygon fill="#145566" fill-rule="nonzero" points="25836,33031 25879,33362 25259,33779 24885,33490 25174,33116 25794,32700 "/>
  <polygon fill="#1A3151" fill-rule="nonzero" points="25857,32920 25379,28694 25954,23964 25825,22957 23255,22860 23162,24498 23594,28701 25217,33136 "/>
  <polygon fill="#145566" fill-rule="nonzero" points="23014,18184 21721,18536 20226,21185 20934,21841 21931,20661 "/>
  <polygon fill="#1A3151" fill-rule="nonzero" points="21369,23333 21363,27597 22221,33087 22839,33081 23178,28004 23973,22923 "/>
  <polygon fill="#145566" fill-rule="nonzero" points="22838,33341 22173,33682 21836,33351 22166,33014 22835,33007 "/>
  <path fill="#145566" fill-rule="nonzero" d="M26220 24784c-6,-185 -16,-339 -18,-394 -13,-496 -57,-990 -119,-1482 -56,-441 -126,-1536 -201,-1974 -62,-362 -280,-1265 -436,-1601 -390,-835 -270,-912 -1984,-1160 -751,-109 -929,360 -1543,898 -61,53 -57,369 -71,453 -25,147 -51,295 -82,441 -24,115 -50,230 -80,344l0 0c0,0 -516,2346 -857,2845 -341,498 -1045,1195 133,1620 209,67 419,132 636,166 0,0 964,-107 1459,-103 456,3 915,50 1363,127 300,50 606,123 875,263 256,134 441,331 701,469 25,13 52,27 80,23 149,-21 156,-545 144,-934z"/>
  <path fill="#EFBFA5" fill-rule="nonzero" d="M25071 13937c0,0 -246,-122 -245,-153 1,-31 42,-476 42,-476l161 -92 68 -189c0,0 -184,-322 -150,-417 34,-95 279,324 279,324l90 256 23 414 -269 333z"/>
  <polygon fill="#EFBFA5" fill-rule="nonzero" points="22453,20283 22956,19900 22801,19678 22399,19864 22375,19725 21985,20105 22114,20357 "/>
  <polygon fill="#145566" fill-rule="nonzero" points="22389,20418 21986,19891 20599,20728 20941,21845 "/>
  <path fill="#EFBFA5" fill-rule="nonzero" d="M23460 18407c87,43 291,58 504,-25 43,-17 72,-58 71,-104 -2,-129 -12,-259 -31,-387 160,-56 344,-140 372,-307 9,-53 0,-106 -9,-159 -38,-217 -75,-434 -113,-652 -13,-75 -27,-152 -68,-217 -72,-113 -211,-162 -343,-185 -336,-58 -703,14 -964,235 -69,59 -132,129 -163,215 -47,132 -12,277 24,413 33,125 66,250 99,375 38,144 92,307 231,361 74,29 160,20 227,63 117,75 102,249 163,375z"/>
  <path fill="#1A3151" fill-rule="nonzero" d="M21518 16241c-33,-54 -69,-107 -108,-156 -86,-106 -193,-197 -262,-316 -69,-118 -94,-278 -11,-387 54,-70 141,-105 226,-130 279,-82 581,-88 863,-16 269,68 509,182 780,81 254,-95 438,-56 704,39 288,103 673,127 934,272 109,60 195,155 263,259 234,362 235,860 3,1223 -52,81 -114,156 -180,227 -136,147 -298,329 -484,383 -4,-167 148,-693 19,-830 -203,-217 -663,-141 -916,-88 -275,58 -521,253 -794,295 -196,30 -447,-66 -614,-168 -206,-125 -302,-491 -423,-689z"/>
  <polygon fill="#145566" fill-rule="nonzero" points="24412,18334 25733,17639 24826,13937 25451,13600 27029,17639 25339,19678 "/>
  <polygon fill="#1A3151" fill-rule="nonzero" points="14711,33276 14682,33556 15215,33894 15524,33642 15272,33333 14739,32995 "/>
  <polygon fill="#145566" fill-rule="nonzero" points="14690,24719 14603,25570 15364,29378 14690,33182 15236,33350 16998,28826 17095,27443 16856,24579 "/>
  <polygon fill="#145566" fill-rule="nonzero" points="18821,25009 18839,28608 18129,33243 17608,33240 17307,28956 16622,24670 "/>
  <polygon fill="#1A3151" fill-rule="nonzero" points="17609,33459 18171,33745 18455,33465 18175,33181 17611,33178 "/>
  <path fill="#B5D6CA" fill-rule="nonzero" d="M19261 24480c-376,-1165 -416,-2389 -526,-3603 -32,-358 -67,-724 -216,-1051 -171,-376 -454,-574 -784,-683 -420,-138 -915,-130 -1351,-157 -414,-13 -780,1543 -1203,2298 -259,462 -526,871 -700,1376 -168,484 -328,977 -426,1480 -147,760 -524,1291 -164,1550 33,11 65,22 95,32 590,211 1200,368 1821,450 551,73 1111,86 1664,31 758,-75 1492,-182 2159,-577 -123,-382 -247,-765 -370,-1147z"/>
  <path fill="#B97262" fill-rule="nonzero" d="M16181 17829c236,-712 1275,-960 1517,-132 73,249 116,513 67,767 -49,254 -205,498 -442,603l-4 2c9,66 19,132 28,198 2,14 4,30 -4,42 -9,14 -27,17 -43,19 -79,12 -158,24 -236,35 -39,6 -80,12 -117,0 -82,-26 -117,-125 -120,-211 -1,-21 -1,-42 0,-62 -466,-160 -798,-793 -644,-1259z"/>
  <path fill="#1A3151" fill-rule="nonzero" d="M17447 16613c190,-28 352,156 528,253 146,81 312,102 463,169 151,67 300,206 303,381 153,-80 320,-162 491,-129 172,33 331,238 263,408 -61,151 -259,187 -325,336 -104,236 177,602 -15,759 -46,38 -109,47 -154,85 -56,48 -74,131 -99,204 -114,333 -449,550 -781,506 -206,-97 -370,-296 -444,-524 -89,-275 58,-371 83,-630 27,-282 -63,-581 -240,-801 -116,-143 -281,-266 -456,-282 -71,-7 -49,53 -129,-2 -34,-24 -81,-113 -91,-156 191,-154 351,-539 602,-577z"/>
  <path fill="#1A3151" fill-rule="nonzero" d="M15389 16979c-98,27 -205,23 -298,64 -140,62 -132,207 -172,334 -44,140 -108,328 -200,437 -67,79 -160,123 -241,184 -81,61 -156,150 -154,259 2,104 71,197 81,300 12,154 -14,233 33,391 25,81 52,167 113,223 80,73 195,72 296,55 101,-17 205,-45 304,-11 215,72 175,290 232,472 87,278 409,440 655,341 209,-84 330,-326 320,-565 -5,-120 -52,-231 -56,-351 -3,-116 62,-276 -43,-368 -26,-22 -58,-34 -81,-60 -19,-21 -29,-48 -35,-76 -22,-96 -1,-200 55,-273 41,-53 99,-91 123,-154 28,-73 6,-158 1,-238 -12,-194 95,-385 256,-460 107,-49 203,-79 296,-154 14,-11 226,-199 232,-158 -10,-70 -51,-132 -92,-189 -69,-93 -145,-184 -241,-239 -312,-180 -327,238 -578,183 -60,-13 -106,-69 -160,-102 -103,-62 -229,-40 -334,7 -105,47 -201,116 -312,147z"/>
  <polygon fill="#3B455A" fill-rule="nonzero" points="35860,26323 38152,25553 37570,29514 37757,33216 37339,33216 36368,29928 35932,26660 "/>
  <polygon fill="#1A3151" fill-rule="nonzero" points="37315,33167 37779,33169 37887,33564 37875,33567 37878,33567 37097,34000 36732,34030 36697,33612 36798,33542 "/>
  <polygon fill="#3B455A" fill-rule="nonzero" points="34077,26347 34579,33398 34974,33447 35567,29542 36454,25906 "/>
  <polygon fill="#1A3151" fill-rule="nonzero" points="34559,33328 33955,33648 34002,33930 35070,33800 35019,33394 "/>
  <path fill="#5BBCB9" fill-rule="nonzero" d="M38777 27467c48,-1153 -982,-4821 -982,-4821l0 0c-109,-345 -192,-695 -242,-1047 -35,-250 -785,-3094 -735,-3098 -516,38 -1512,-84 -1895,282 -11,10 -21,21 -31,33 -298,340 -453,1029 -594,1453 -185,557 -328,1128 -425,1707 -85,506 -135,1017 -171,1529 -31,440 -6,877 -21,1310 -17,479 -160,998 -267,1464 -108,469 -245,933 -434,1376 513,227 1084,288 1645,290 561,2 1121,-52 1681,-43 474,7 954,59 1419,-36 369,-76 710,-240 1054,-399l0 0z"/>
  <path fill="#1A3151" fill-rule="nonzero" d="M35049 17295c-236,116 -481,417 -466,696 7,135 82,239 84,383 5,285 437,582 173,857 -136,141 -348,169 -543,188 -24,2 -48,5 -70,-5 -36,-15 -54,-58 -53,-97 1,-39 16,-76 28,-113 124,-389 -63,-844 -85,-1241 -22,-396 72,-824 396,-1082 218,66 380,158 487,359l49 53z"/>
  <path fill="#EFBFA5" fill-rule="nonzero" d="M35196 18986c-269,-34 -497,-232 -622,-472 -125,-240 -160,-517 -161,-788 -4,-901 1110,-961 1558,-318 390,560 6,1677 -775,1578z"/>
  <path fill="#1A3151" fill-rule="nonzero" d="M36545 19096c-138,-39 -275,-83 -382,-200 -173,-189 -225,-545 -306,-780 -86,-248 -187,-516 -413,-651 -147,-88 -295,-81 -457,-52 -110,20 -107,62 -211,21 -80,-31 -168,-155 -200,-230 -54,-128 -28,-279 40,-400 104,-187 249,-298 453,-342 714,-157 1337,163 1676,825 163,318 165,707 332,1011 103,188 258,296 352,499 243,527 688,1174 777,1751 3,21 5,45 -8,62 -27,35 -82,10 -116,-18 -202,-159 -403,-317 -605,-476 -79,-62 -160,-126 -218,-208 -147,-204 -150,-503 -348,-659 -108,-85 -237,-118 -365,-154z"/>
  <path fill="#EFBFA5" fill-rule="nonzero" d="M39891 18005c135,25 486,-69 567,-193 186,-286 -256,-198 -416,-202 18,-55 38,-109 45,-165 6,-52 -468,83 -514,133 -110,119 -60,209 -50,360 123,19 245,44 367,67z"/>
  <polygon fill="#5BBCB9" fill-rule="nonzero" points="36159,20883 38752,20452 39946,18030 39471,17639 38208,19316 36887,19260 35665,19312 "/>
  <polygon fill="#EFBFA5" fill-rule="nonzero" points="10130,26173 7861,25338 8329,29314 8058,32743 8051,32766 8056,32767 8038,32995 8438,33068 9519,29763 10048,26508 "/>
  <polygon fill="#1A3151" fill-rule="nonzero" points="8480,32973 8016,32961 7897,33353 7909,33357 7906,33357 8673,33812 9038,33852 9085,33435 8986,33363 "/>
  <polygon fill="#EFBFA5" fill-rule="nonzero" points="11676,26241 10975,33254 10581,33350 10095,29393 9312,25733 "/>
  <polygon fill="#1A3151" fill-rule="nonzero" points="10994,33206 11589,33543 11533,33824 10470,33663 10533,33259 "/>
  <path fill="#9EA6AD" fill-rule="nonzero" d="M12740 27950c144,-100 147,-273 146,-447 -1,-327 -59,-660 -134,-978 -143,-595 -304,-1312 -375,-2083 -184,-1993 -813,-3331 -813,-3331l-203 -542c-40,-70 -82,-140 -126,-209 -254,-398 -694,-1075 -1165,-1185 -10,-2 -20,-5 -30,-7 -495,-109 -1130,-58 -1578,183 -85,46 -160,107 -235,167 -219,177 -397,272 -492,541 -82,234 -101,488 -146,731 -92,492 -147,990 -220,1484 -137,928 -254,1858 -401,2785 -76,477 -152,954 -188,1436 -32,426 -416,858 -632,1240 -75,133 1004,477 1101,500 448,104 924,78 1385,80 1011,5 2022,-27 3031,-94 335,-22 748,-86 1046,-253 10,-6 19,-11 28,-17z"/>
  <path fill="#B5D6CA" fill-rule="nonzero" d="M9485 19115c0,0 -570,-154 -648,1131 -79,1285 -210,4537 -393,5429 -184,892 -459,2641 -459,2641l1744 61 1993 -157c0,0 -682,-1259 -787,-2151 -105,-892 79,-4249 -367,-5508 -446,-1259 -539,-1424 -1083,-1446z"/>
  <polygon fill="#9EA6AD" fill-rule="nonzero" points="12063,21977 12194,22134 12666,21479 10777,19381 10069,19171 10410,20089 "/>
  <polygon fill="#EFBFA5" fill-rule="nonzero" points="10484,21434 10070,21118 10197,20935 10529,21089 10549,20974 10871,21288 10764,21496 "/>
  <polygon fill="#9EA6AD" fill-rule="nonzero" points="12108,21353 12089,21394 10797,21145 10607,21569 12194,22134 "/>
  <path fill="#1A3151" fill-rule="nonzero" d="M10279 18096c86,259 -39,535 -148,771 -97,209 -131,347 116,403 139,32 385,91 507,-15 92,-81 40,-329 -5,-428 -34,-75 -125,-114 -157,-190 -13,-31 -15,-66 -16,-101 -2,-140 17,-279 57,-413 27,-91 63,-180 72,-274 12,-137 -85,-296 -136,-422 -95,-234 -424,-548 -700,-364 -63,42 -99,113 -130,182 -18,41 -36,84 -36,129 -2,180 162,210 275,295 140,105 246,263 301,428z"/>
  <path fill="#EFBFA5" fill-rule="nonzero" d="M9755 19106c239,-56 426,-257 516,-486 90,-229 95,-482 70,-727 -83,-814 -1095,-761 -1438,-138 -299,543 156,1514 852,1351z"/>
  <path fill="#EFBFA5" fill-rule="nonzero" d="M9754 19019c-4,93 -8,185 -12,278 -1,14 -2,28 -11,38 -11,11 -28,11 -44,11 -76,-3 -151,-5 -227,-8 -37,-1 -76,-3 -109,-21 -72,-39 -87,-137 -76,-218 12,-81 41,-163 23,-243 156,77 304,-97 460,-20l-5 183z"/>
  <path fill="#1A3151" fill-rule="nonzero" d="M9428 16483c-266,90 -436,359 -695,466 -149,62 -325,69 -446,175 -272,237 -53,734 -277,1018 -46,59 -109,103 -156,162 -101,127 -114,300 -123,461 -2,36 -2,76 4,113 35,373 576,349 792,325 236,-26 157,-157 157,-157l-9 -10c-23,-151 40,-313 159,-409 44,-36 96,-64 128,-112 70,-107 3,-248 13,-375 41,-512 901,-402 1144,-767 297,-447 -189,-1059 -691,-889z"/>
  <path fill="#145566" fill-rule="nonzero" d="M12240 9406l-7403 601c-29,2 -50,29 -47,59l465 5514c3,31 28,53 56,51l1673 -136 1282 1489c37,43 110,15 106,-42l-107 -1551 2894 -235c887,-72 1542,-900 1462,-1849l-324 -3851c-3,-31 -28,-53 -56,-51z"/>
  <polygon fill="#FFFFEE" fill-rule="nonzero" points="11415,10590 6804,10964 6788,10776 11399,10401 "/>
  <polygon fill="#FFFFEE" fill-rule="nonzero" points="11536,12028 6036,12475 6020,12286 11521,11840 "/>
  <polygon fill="#FFFFEE" fill-rule="nonzero" points="11658,13467 6157,13913 6141,13725 11642,13278 "/>
  <path fill="#B5D6CA" fill-rule="nonzero" d="M27166 11299c0,-1597 1834,-2892 4097,-2892 2263,0 4097,1295 4097,2892 0,1597 -1834,2892 -4097,2892 -90,0 -179,-2 -268,-6 -40,-2 -72,34 -64,74l326 1780c11,62 -66,100 -108,53l-2132 -2368c-6,-6 -12,-11 -20,-15 -1104,-518 -1832,-1404 -1832,-2410z"/>
  <path fill="#1A3151" fill-rule="nonzero" d="M33005 11652c-236,0 -237,-367 0,-367 236,0 237,367 0,367z"/>
  <path fill="#1A3151" fill-rule="nonzero" d="M31353 11652c-236,0 -237,-367 0,-367 236,0 237,367 0,367z"/>
  <path fill="#1A3151" fill-rule="nonzero" d="M29287 11652c-236,0 -237,-367 0,-367 236,0 237,367 0,367z"/>
  <polygon fill="#EFBFA5" fill-rule="nonzero" points="6631,15578 6786,15033 7021,15090 6998,15486 7121,15461 6932,15910 6679,15885 "/>
  <polygon fill="#9EA6AD" fill-rule="nonzero" points="8708,19710 6987,18320 7047,15780 6543,15755 5807,18738 7531,20913 "/>
  <polygon fill="#EBB044" fill-rule="nonzero" points="30792,19066 31914,17854 31650,14569 32143,14353 32813,17685 32608,18515 31351,20250 "/>
  <polygon fill="#B97262" fill-rule="nonzero" points="32143,14353 32143,13600 31798,13398 31633,13704 31633,14011 31454,14084 31650,14569 "/>
  <path fill="#EBB044" fill-rule="nonzero" d="M20262 7250l5997 -12c555,-1 1006,448 1007,1003l7 3865c1,553 -445,1003 -997,1007l-964 7 -1096 1544c-32,45 -103,23 -104,-32l-25 -1509 -3816 -2c-554,0 -1004,-449 -1005,-1003l-7 -3862c-1,-555 448,-1006 1003,-1007z"/>
  <polygon fill="#FFFFEF" fill-rule="nonzero" points="20413,8613 25203,8614 25203,8414 20413,8413 "/>
  <polygon fill="#FFFFEF" fill-rule="nonzero" points="20412,10135 26126,10136 26126,9937 20412,9935 "/>
  <polygon fill="#FFFFEF" fill-rule="nonzero" points="20412,11657 26126,11658 26126,11459 20412,11457 "/>
  <path fill="#5BBCB9" fill-rule="nonzero" d="M20142 12461c-13,-765 -639,-1376 -1402,-1372 1,-24 1,-48 1,-72 -15,-934 -785,-1679 -1720,-1664 -508,8 -960,240 -1265,601 -292,-322 -716,-522 -1185,-514 -835,14 -1506,679 -1538,1503 -35,-2 -71,-3 -107,-3 -770,13 -1384,647 -1372,1418 10,620 423,1138 985,1311 -67,164 -103,344 -100,532 12,746 627,1340 1372,1327 57,-1 113,-6 169,-13l24 1444c2,63 83,86 105,54l894 -1299c216,138 473,217 748,212 500,-8 931,-287 1158,-694 234,141 509,221 803,216 832,-14 1496,-700 1482,-1532 -1,-36 -3,-72 -6,-108 562,-187 963,-722 953,-1346z"/>
  <path fill="#ECE9DE" fill-rule="nonzero" d="M17486 12653c-206,3 -201,324 5,320 206,-3 201,-324 -5,-320z"/>
  <path fill="#ECE9DE" fill-rule="nonzero" d="M16046 12676c-206,3 -201,324 5,320 206,-3 201,-323 -5,-320z"/>
  <path fill="#ECE9DE" fill-rule="nonzero" d="M14245 12706c-206,3 -201,323 5,320 206,-3 201,-324 -5,-320z"/>
  <polygon fill="#B97262" fill-rule="nonzero" points="18750,15143 18438,14670 18230,14795 18372,15165 18247,15179 18563,15550 18796,15450 "/>
  <polygon fill="#B5D6CA" fill-rule="nonzero" points="17731,19371 19235,17865 18413,15460 18886,15285 20485,17909 18425,20463 "/>
 </g>
</svg>
