<?xml version="1.0" encoding="UTF-8"?>
<!DOCTYPE svg PUBLIC "-//W3C//DTD SVG 1.1//EN" "http://www.w3.org/Graphics/SVG/1.1/DTD/svg11.dtd">
<!-- Creator: CorelDRAW 2017 -->
<svg xmlns="http://www.w3.org/2000/svg" xml:space="preserve" width="456.661mm" height="456.661mm" version="1.1" style="shape-rendering:geometricPrecision; text-rendering:geometricPrecision; image-rendering:optimizeQuality; fill-rule:evenodd; clip-rule:evenodd"
viewBox="0 0 16288 16288"
 xmlns:xlink="http://www.w3.org/1999/xlink">
 <defs>
  <style type="text/css">
   <![CDATA[
    .fil1 {fill:black}
    .fil0 {fill:#FEFEFE}
   ]]>
  </style>
 </defs>
 <g id="Layer_x0020_1">
  <metadata id="CorelCorpID_0Corel-Layer"/>
  <g id="_2317982785264">
   <polygon class="fil0" points="0,16288 16288,16288 16288,0 0,0 "/>
   <path class="fil1" d="M9597 12286c-424,172 -880,282 -1357,316l0 1338c469,-25 924,-108 1357,-239 2302,-698 3999,-2788 4112,-5289 5,-89 6,-178 6,-267 0,-371 -35,-736 -103,-1089 -404,-2129 -1970,-3847 -4015,-4467 -433,-131 -887,-213 -1357,-239l0 8778 1357 0 0 -7124c1305,532 2302,1664 2650,3052 88,349 134,713 134,1089 0,89 -3,178 -7,267 -104,1757 -1222,3239 -2776,3874l0 0 0 0z"/>
   <path class="fil1" d="M7607 3686l0 7441 -1355 0 0 -2410 -6 5 -1403 1345 -608 584c177,262 380,502 608,721l0 1687c-615,-389 -1152,-890 -1583,-1474 -275,-375 -507,-783 -688,-1219l1060 -1015 978 -938 233 -224 424 -406 -424 -405 -335 -321 -686 -658 -1015 -972c217,-407 480,-785 783,-1128 364,-410 786,-770 1253,-1064l0 1685c-101,97 -196,198 -288,303l288 276 1403 1345 6 5 0 -4259c433,-131 886,-213 1355,-239l0 1337 0 -1zm-1355 8600c422,172 878,282 1355,316l0 1338c-469,-25 -923,-108 -1355,-239l0 -1415 0 0z"/>
  </g>
 </g>
</svg>
