<?xml version="1.0" encoding="UTF-8"?>
<!DOCTYPE svg PUBLIC "-//W3C//DTD SVG 1.1//EN" "http://www.w3.org/Graphics/SVG/1.1/DTD/svg11.dtd">
<!-- Creator: CorelDRAW 2017 -->
<svg xmlns="http://www.w3.org/2000/svg" xml:space="preserve" width="312.434mm" height="324.992mm" version="1.1" style="shape-rendering:geometricPrecision; text-rendering:geometricPrecision; image-rendering:optimizeQuality; fill-rule:evenodd; clip-rule:evenodd"
viewBox="0 0 8592 8937"
 xmlns:xlink="http://www.w3.org/1999/xlink">
 <defs>
  <style type="text/css">
   <![CDATA[
    .fil0 {fill:#FEFEFE}
   ]]>
  </style>
 </defs>
 <g id="Layer_x0020_1">
  <metadata id="CorelCorpID_0Corel-Layer"/>
  <path class="fil0" d="M5417 7662c-327,133 -678,218 -1046,244l0 1031c362,-19 713,-83 1046,-185 1775,-539 3083,-2149 3170,-4078 4,-69 5,-137 5,-206 0,-286 -27,-567 -79,-840 -312,-1642 -1519,-2966 -3096,-3444 -333,-101 -684,-164 -1046,-185l0 6768 1046 0 0 -5493c1006,410 1775,1283 2043,2353 68,269 103,550 103,840 0,69 -2,137 -6,206 -80,1354 -942,2498 -2140,2987l0 0 0 0z"/>
  <path class="fil0" d="M3882 1031l0 5737 -1045 0 0 -1858 -5 4 -1082 1037 -469 450c136,202 293,387 469,556l0 1300c-475,-300 -888,-686 -1220,-1136 -212,-289 -391,-604 -531,-940l817 -782 754 -723 180 -173 327 -313 -327 -313 -258 -248 -529 -508 -782 -749c167,-314 370,-605 604,-869 281,-316 606,-594 966,-820l0 1299c-78,74 -151,153 -222,234l222 213 1082 1037 5 4 0 -3284c333,-101 683,-164 1045,-185l0 1031 0 -1zm-1045 6631c326,133 677,218 1045,244l0 1031c-362,-19 -712,-83 -1045,-185l0 -1091 0 0z"/>
 </g>
</svg>
