<?xml version="1.0" encoding="UTF-8"?>
<!DOCTYPE svg PUBLIC "-//W3C//DTD SVG 1.1//EN" "http://www.w3.org/Graphics/SVG/1.1/DTD/svg11.dtd">
<!-- Creator: CorelDRAW 2017 -->
<svg xmlns="http://www.w3.org/2000/svg" xml:space="preserve" width="456.661mm" height="456.661mm" version="1.1" style="shape-rendering:geometricPrecision; text-rendering:geometricPrecision; image-rendering:optimizeQuality; fill-rule:evenodd; clip-rule:evenodd"
viewBox="0 0 34908 34908"
 xmlns:xlink="http://www.w3.org/1999/xlink">
 <defs>
  <style type="text/css">
   <![CDATA[
    .fil0 {fill:black}
    .fil1 {fill:#FEFEFE}
   ]]>
  </style>
 </defs>
 <g id="Layer_x0020_1">
  <metadata id="CorelCorpID_0Corel-Layer"/>
  <polygon class="fil0" points="0,34908 34908,34908 34908,0 0,0 "/>
  <path class="fil1" d="M20569 26331c-908,369 -1886,605 -2908,678l0 2867c1006,-54 1981,-232 2908,-513 4934,-1497 8571,-5975 8813,-11335 10,-191 13,-382 13,-573 0,-796 -76,-1577 -220,-2335 -866,-4564 -4223,-8246 -8606,-9574 -927,-280 -1901,-456 -2908,-513l0 18814 2908 0 0 -15269c2796,1140 4934,3567 5679,6542 188,749 287,1529 287,2335 0,191 -6,382 -16,573 -223,3765 -2618,6943 -5950,8303l0 0z"/>
  <path class="fil1" d="M16304 7899l0 15948 -2905 0 0 -5166 -13 10 -3007 2882 -1303 1252c379,561 815,1076 1303,1545l0 3615c-1319,-834 -2468,-1908 -3392,-3159 -589,-803 -1086,-1679 -1475,-2612l2271 -2175 2096 -2010 500 -481 908 -870 -908 -869 -717 -688 -1471 -1411 -2175 -2083c465,-873 1029,-1682 1679,-2417 780,-879 1685,-1650 2685,-2280l0 3612c-217,207 -420,424 -618,650l618 592 3007 2882 13 10 0 -9128c927,-280 1898,-456 2905,-513l0 2866zm-2905 18432c905,369 1882,605 2905,678l0 2867c-1006,-54 -1978,-232 -2905,-513l0 -3032z"/>
 </g>
</svg>
