<?xml version="1.0" encoding="UTF-8"?>
<!DOCTYPE svg PUBLIC "-//W3C//DTD SVG 1.1//EN" "http://www.w3.org/Graphics/SVG/1.1/DTD/svg11.dtd">
<!-- Creator: CorelDRAW 2017 -->
<svg xmlns="http://www.w3.org/2000/svg" xml:space="preserve" width="312.497mm" height="325.078mm" version="1.1" style="shape-rendering:geometricPrecision; text-rendering:geometricPrecision; image-rendering:optimizeQuality; fill-rule:evenodd; clip-rule:evenodd"
viewBox="0 0 21546 22413"
 xmlns:xlink="http://www.w3.org/1999/xlink">
 <defs>
  <style type="text/css">
   <![CDATA[
    .str0 {stroke:black;stroke-width:5.25372}
    .fil0 {fill:black}
   ]]>
  </style>
 </defs>
 <g id="Layer_x0020_1">
  <metadata id="CorelCorpID_0Corel-Layer"/>
  <g id="_2317981746176">
   <path class="fil0 str0" d="M13583 19213c-819,333 -1701,546 -2623,612l0 2585c908,-49 1787,-210 2623,-463 4450,-1350 7731,-5389 7949,-10224 9,-172 11,-345 11,-517 0,-718 -69,-1422 -198,-2106 -781,-4117 -3809,-7437 -7762,-8636 -836,-253 -1715,-411 -2623,-462l0 16969 2623 0 0 -13772c2522,1028 4450,3217 5122,5901 170,675 259,1379 259,2106 0,172 -6,345 -14,517 -201,3396 -2361,6263 -5366,7489l0 0z"/>
   <path class="fil0 str0" d="M9736 2588l0 14384 -2620 0 0 -4660 -11 9 -2712 2600 -1175 1129c342,506 735,971 1175,1393l0 3260c-1189,-753 -2226,-1721 -3060,-2850 -531,-724 -980,-1514 -1330,-2356l2048 -1962 1890 -1813 451 -434 819 -784 -819 -784 -646 -621 -1327 -1273 -1962 -1879c419,-787 928,-1517 1514,-2180 704,-793 1520,-1488 2422,-2057l0 3258c-195,187 -379,382 -557,586l557 534 2712 2600 11 9 0 -8233c836,-253 1712,-411 2620,-462l0 2585zm-2620 16625c816,333 1698,546 2620,612l0 2585c-908,-49 -1784,-210 -2620,-463l0 -2735z"/>
  </g>
 </g>
</svg>
